<svg id="Layer_4" enable-background="new 0 0 24 24" height="512" viewBox="0 0 24 24" width="512" xmlns="http://www.w3.org/2000/svg"><path d="m14.5 0h-13.5c-.552 0-1 .448-1 1v5c0 .552.448 1 1 1h13.5c.552 0 1-.448 1-1v-5c0-.552-.448-1-1-1z" fill="#90caf9"/><path d="m23 0h-5c-.552 0-1 .448-1 1v5c0 .552.448 1 1 1h5c.552 0 1-.448 1-1v-5c0-.552-.448-1-1-1z" fill="#90caf9"/><path d="m20.5 0h-2.5c-.553 0-1 .448-1 1v5c0 .552.447 1 1 1h2.5z" fill="#7db0d9"/><path d="m7.75 0h-.75-6c-.552 0-1 .448-1 1v5c0 .552.448 1 1 1h6.75z" fill="#7db0d9"/><path d="m0 23c0 .552.447 1 1 1h22c.553 0 1-.448 1-1v-5c0-.552-.447-1-1-1h-22c-.553 0-1 .448-1 1z" fill="#42a5f5"/><path d="m15.5 8.5h-14.5c-.553 0-1 .448-1 1v5c0 .552.447 1 1 1h22c.553 0 1-.448 1-1v-5c0-.552-.447-1-1-1h-6z" fill="#90caf9"/><path d="m12 17h-11c-.553 0-1 .448-1 1v5c0 .552.447 1 1 1h11z" fill="#3990d5"/><path d="m12 8.5h-11c-.553 0-1 .448-1 1v5c0 .552.447 1 1 1h11z" fill="#7db0d9"/></svg>